# xmcd
#
# Track frame offsets:
#	150
#	10099
#	15650
#	25688
#	32260
#	36009
#	41531
#	49515
#
# Disc length: 749 seconds
#
# Revision: 0
# Processed by: cddbd v1.5.1PL0 Copyright (c) Steve Scherf et al.
# Submitted via: EasyCDDAExtractor 8.0.1.1
#
DISCID=4902eb08
DTITLE=None Would Remain - Demo 2004
DYEAR=1900
DGENRE=
TTITLE0=holy war
TTITLE1=behind closed doors
TTITLE2=voice of Treason
TTITLE3=way to go
TTITLE4=lobotomy
TTITLE5=our world
TTITLE6=blood on the sidewalk
TTITLE7=suffer
EXTD=
EXTT0=
EXTT1=
EXTT2=
EXTT3=
EXTT4=
EXTT5=
EXTT6=
EXTT7=
PLAYORDER=
